<?xml version="1.0" encoding="UTF-8"?>
<svg width="243px" height="44px" viewBox="0 0 243 44" version="1.1" xmlns="http://www.w3.org/2000/svg" xmlns:xlink="http://www.w3.org/1999/xlink">
    <!-- Generator: Sketch 47.1 (45422) - http://www.bohemiancoding.com/sketch -->
    <title>Combined Shape</title>
    <desc>Created with Sketch.</desc>
    <defs></defs>
    <g id="Always-Assist" stroke="none" stroke-width="1" fill="none" fill-rule="evenodd">
        <g id="AlwaysAssist-Home" transform="translate(-120.000000, -43.000000)" fill="#FFFFFF">
            <path d="M126.531633,77.5350454 L119.999852,77.5350454 L129.981345,43.3696 L136.696948,43.3696 L146.678441,77.5350454 L139.640688,77.5350454 L137.800989,70.3615664 L128.417564,70.3615664 L126.531633,77.5350454 Z M149.713685,77.5351933 L149.713685,43.5076639 L156.567247,43.5076639 L156.567247,77.5351933 L149.713685,77.5351933 Z M159.097295,53.0260101 L165.674938,53.0260101 L167.468774,61.3031866 C167.590829,61.8855395 167.698829,62.4298084 167.790555,62.9356235 C167.882651,63.4410689 167.974747,63.9550185 168.066842,64.4759933 C168.158938,64.9973378 168.258062,65.5722958 168.365692,66.2001277 C168.472952,66.8286992 168.587979,67.5567328 168.710774,68.3842286 L168.80287,68.3842286 C168.924925,67.5567328 169.032555,66.8286992 169.124651,66.2001277 C169.216747,65.5722958 169.31587,64.9892034 169.4235,64.4526992 C169.53076,63.9169345 169.645788,63.3952202 169.768582,62.889405 C169.891007,62.3835899 170.013801,61.8396908 170.136596,61.2569681 L171.930432,53.0260101 L177.634459,53.0260101 L179.428295,61.1190521 C179.581418,61.7017748 179.71124,62.2615731 179.81924,62.7977076 C179.92613,63.3342118 180.03339,63.8858756 180.141021,64.4526992 C180.248281,65.0202622 180.355541,65.6251697 180.463171,66.2689008 C180.570432,66.9130017 180.685089,67.6336403 180.808253,68.4304471 L180.899979,68.4304471 C181.022404,67.6336403 181.130034,66.9130017 181.22213,66.2689008 C181.313856,65.6251697 181.413349,65.0276571 181.520979,64.4759933 C181.62824,63.9243294 181.7355,63.3878252 181.84313,62.8664807 C181.950021,62.3455059 182.065048,61.793842 182.188212,61.2111193 L183.889952,53.0260101 L189.685705,53.0260101 L183.982048,77.5809681 L177.864144,77.5809681 L174.460664,62.5444303 L174.368568,62.5444303 L170.964719,77.5809681 L164.846815,77.5809681 L159.097295,53.0260101 Z M196.079601,77.8111361 C195.251848,77.8111361 194.469588,77.6957748 193.73393,77.4661613 C192.997903,77.2361782 192.360999,76.860884 191.825067,76.3395395 C191.288026,75.8185647 190.866012,75.1519092 190.560136,74.3392034 C190.253149,73.5276067 190.100026,72.5536908 190.100026,71.4193042 C190.100026,70.0704639 190.406273,68.8750689 191.019875,67.8323798 C191.633108,66.7908 192.514862,65.8782622 193.664766,65.0966151 C194.81467,64.3149681 196.202026,63.6409176 197.827574,63.0733546 C199.452752,62.5065311 201.277286,62.0384303 203.301177,61.6705311 L203.301177,60.6592706 C203.301177,59.7397076 203.117355,59.0427328 202.749341,58.5668672 C202.381327,58.0921109 201.737396,57.854363 200.817547,57.854363 C199.559642,57.854363 198.340574,58.1383294 197.160711,58.7047832 C195.979738,59.2723462 194.944862,59.8776235 194.055711,60.5213546 L190.974012,56.4748336 C192.414999,55.2180605 194.070875,54.2445143 195.941642,53.5545647 C197.81167,52.8649849 199.866629,52.5200101 202.10541,52.5200101 C204.834259,52.5200101 206.812286,53.1796403 208.039122,54.4974218 C209.265218,55.8155731 209.878821,57.8698924 209.878821,60.6592706 L209.878821,71.5572202 C209.878821,73.0288168 209.916916,74.2401109 209.993848,75.1899933 C210.07004,76.1406151 210.23093,76.9218924 210.476889,77.5353042 L203.761286,77.5353042 C203.607423,77.0749681 203.492396,76.5850521 203.416204,76.0637076 C203.339273,75.5427328 203.301177,74.9300605 203.301177,74.2245815 C202.411656,75.3896571 201.37641,76.2785311 200.196547,76.8912034 C199.015574,77.5049849 197.643752,77.8111361 196.079601,77.8111361 Z M217.008485,86.8236303 C215.566759,86.8236303 214.378759,86.7467227 213.443745,86.5936471 C212.507992,86.4402017 211.779732,86.2871261 211.258595,86.1340504 L212.546827,80.8000672 C212.883773,80.8610756 213.366814,80.9527731 213.995581,81.0758992 C214.623608,81.197916 215.336704,81.2596639 216.134499,81.2596639 C216.931553,81.2596639 217.537389,81.0829244 217.951266,80.7305546 C218.365142,80.3778151 218.69469,79.8035966 218.940279,79.0064202 L219.354156,77.8110252 L211.580745,53.026084 L218.664362,53.026084 L221.102129,62.5445042 C221.439074,63.8937143 221.738293,65.1423529 221.999047,66.2922689 C222.25943,67.4418151 222.527951,68.7222521 222.803868,70.1317311 L222.895964,70.1317311 C223.172252,68.6911933 223.455197,67.3808067 223.747019,66.2002017 C224.038101,65.0203361 224.352115,63.7557983 224.69017,62.4065882 L227.127937,53.026084 L233.659718,53.026084 L225.14991,79.9263529 C224.781896,81.06 224.375047,82.0564706 223.931211,82.915395 C223.486266,83.7728403 222.942197,84.493479 222.298266,85.0762017 C221.654334,85.6585546 220.902403,86.0948571 220.044321,86.3865882 C219.185499,86.6775798 218.173553,86.8236303 217.008485,86.8236303 Z M243.77843,78.0868941 C241.386526,78.0868941 239.363005,77.718995 237.706759,76.9835664 C236.050882,76.2473983 234.639855,75.2058185 233.475156,73.8566084 L237.016964,70.0397008 C237.997841,71.0213815 239.101882,71.8181882 240.328718,72.4308605 C241.554814,73.0442723 242.735786,73.3504235 243.870526,73.3504235 C244.851403,73.3504235 245.633663,73.1666588 246.216197,72.7987597 C246.798732,72.4308605 247.090553,71.864037 247.090553,71.0975496 C247.090553,70.3314319 246.783567,69.7409445 246.170334,69.3271966 C245.556732,68.913079 244.790375,68.5533143 243.870526,68.2464235 C242.950677,67.940642 241.961663,67.6256168 240.903855,67.3039361 C239.845677,66.9818857 238.856663,66.5381882 237.936814,65.9702555 C237.016964,65.4034319 236.250238,64.6447092 235.637005,63.6940874 C235.023033,62.744205 234.716786,61.5025916 234.716786,59.9696168 C234.716786,58.7128437 234.962005,57.6243059 235.452814,56.7047429 C235.942882,55.7851798 236.603088,55.0112975 237.430841,54.3827261 C238.258964,53.7545244 239.21691,53.2867933 240.305786,52.9802723 C241.393923,52.674121 242.551595,52.5203059 243.77843,52.5203059 C245.434677,52.5203059 247.067252,52.8578857 248.677266,53.5319361 C250.287279,54.2063563 251.644307,55.1721378 252.747978,56.4289109 L249.20617,60.1992303 C248.255252,59.3107261 247.34317,58.6289109 246.469184,58.1530454 C245.595567,57.6782891 244.682745,57.4401714 243.732567,57.4401714 C241.953526,57.4401714 241.064745,58.1456504 241.064745,59.5554992 C241.064745,60.2912975 241.370992,60.8662555 241.984595,61.2800034 C242.597827,61.6937513 243.356416,62.0546252 244.261471,62.3607765 C245.165416,62.6672975 246.15443,62.9812134 247.228512,63.3032639 C248.301485,63.6253143 249.290129,64.0697513 250.195184,64.6365748 C251.099129,65.2041378 251.858458,65.9550958 252.47206,66.8901882 C253.085293,67.8252807 253.39191,69.0591294 253.39191,70.5917345 C253.39191,71.8181882 253.131156,72.8985916 252.610019,73.8333143 C252.088142,74.7687765 251.383184,75.5507933 250.494033,76.1786252 C249.604142,76.8071966 248.58517,77.2819529 247.435266,77.6040034 C246.285362,77.925684 245.066293,78.0868941 243.77843,78.0868941 Z M259.233045,77.5351193 L255.599511,77.5351193 L265.580634,43.3696739 L269.168675,43.3696739 L279.150168,77.5351193 L275.286579,77.5351193 L272.572525,67.7404975 L261.9471,67.7404975 L259.233045,77.5351193 Z M290.006055,78.0410454 C287.890068,78.0410454 286.088096,77.5895832 284.601247,76.6873983 C283.113288,75.7848437 281.894589,74.5657849 280.944411,73.0287429 L283.474274,71.1896168 C284.271329,72.4157008 285.245178,73.3504235 286.395082,73.9945244 C287.544986,74.6382555 288.764055,74.9599361 290.051918,74.9599361 C291.616068,74.9599361 292.811836,74.6467597 293.639589,74.0196672 C294.467712,73.392205 294.881959,72.5129445 294.881959,71.3804067 C294.881959,70.3717345 294.566836,69.576037 293.938808,68.995163 C293.310041,68.4139193 292.527781,67.9166084 291.592767,67.5036 C290.657014,67.0905916 289.645068,66.6923731 288.556932,66.3100538 C287.468425,65.9277345 286.45611,65.4537176 285.521096,64.8876336 C284.585342,64.3215496 283.803082,63.6027597 283.175055,62.7305244 C282.546288,61.8590286 282.232274,60.7043059 282.232274,59.2663563 C282.232274,58.2872639 282.423493,57.4002387 282.807411,56.6045412 C283.190219,55.8095832 283.719493,55.1288773 284.394123,54.5627933 C285.068384,53.9967092 285.873205,53.5530118 286.808959,53.2320706 C287.744342,52.9111294 288.779219,52.7502891 289.913959,52.7502891 C291.722959,52.7502891 293.28674,53.1407429 294.606041,53.9227597 C295.923863,54.7044067 297.027534,55.7700202 297.917425,57.1184908 L295.433795,59.0500538 C294.819822,58.0998017 294.053466,57.3255496 293.133616,56.7276672 C292.213767,56.1297849 291.12489,55.8310286 289.868096,55.8310286 C288.488137,55.8310286 287.468425,56.1379193 286.808959,56.7505916 C286.149123,57.3640034 285.820315,58.1456504 285.820315,59.0959025 C285.820315,60.1075328 286.126562,60.9047092 286.740164,61.4870622 C287.353027,62.0697849 288.127151,62.5604403 289.062904,62.9582891 C289.998288,63.3572471 291.009863,63.7399361 292.09874,64.1078353 C293.187247,64.4757345 294.198822,64.9434655 295.134575,65.5102891 C296.069959,66.0782218 296.843712,66.8058857 297.457315,67.6947597 C298.070178,68.5843731 298.377164,69.7638689 298.377164,71.2354655 C298.377164,72.2777849 298.162274,73.220642 297.733233,74.0632975 C297.303452,74.9066924 296.705753,75.6269613 295.939767,76.2244739 C295.172671,76.8223563 294.283521,77.2749277 293.271575,77.581079 C292.26,77.8872303 291.170753,78.0410454 290.006055,78.0410454 Z M309.601027,78.0410454 C307.485041,78.0410454 305.683068,77.5895832 304.196219,76.6873983 C302.70826,75.7848437 301.489562,74.5657849 300.539384,73.0287429 L303.069247,71.1896168 C303.866301,72.4157008 304.840151,73.3504235 305.990055,73.9945244 C307.139959,74.6382555 308.359027,74.9599361 309.64689,74.9599361 C311.211041,74.9599361 312.406808,74.6467597 313.234562,74.0196672 C314.062685,73.392205 314.476932,72.5129445 314.476932,71.3804067 C314.476932,70.3717345 314.161808,69.576037 313.533781,68.995163 C312.905014,68.4139193 312.122753,67.9166084 311.18774,67.5036 C310.251986,67.0905916 309.240041,66.6923731 308.151904,66.3100538 C307.063397,65.9277345 306.051082,65.4537176 305.116068,64.8876336 C304.180315,64.3215496 303.398055,63.6027597 302.770027,62.7305244 C302.14126,61.8590286 301.827247,60.7043059 301.827247,59.2663563 C301.827247,58.2872639 302.018466,57.4002387 302.402384,56.6045412 C302.785192,55.8095832 303.314466,55.1288773 303.989096,54.5627933 C304.663356,53.9967092 305.468178,53.5530118 306.403932,53.2320706 C307.339315,52.9111294 308.374192,52.7502891 309.508932,52.7502891 C311.317932,52.7502891 312.881712,53.1407429 314.201014,53.9227597 C315.518836,54.7044067 316.622507,55.7700202 317.512767,57.1184908 L315.028767,59.0500538 C314.414795,58.0998017 313.648438,57.3255496 312.728589,56.7276672 C311.80874,56.1297849 310.719863,55.8310286 309.463068,55.8310286 C308.08311,55.8310286 307.063397,56.1379193 306.403932,56.7505916 C305.744096,57.3640034 305.415288,58.1456504 305.415288,59.0959025 C305.415288,60.1075328 305.721534,60.9047092 306.335137,61.4870622 C306.948,62.0697849 307.722123,62.5604403 308.657877,62.9582891 C309.59326,63.3572471 310.604836,63.7399361 311.693712,64.1078353 C312.782219,64.4757345 313.793795,64.9434655 314.729548,65.5102891 C315.664932,66.0782218 316.438685,66.8058857 317.052288,67.6947597 C317.665521,68.5843731 317.972507,69.7638689 317.972507,71.2354655 C317.972507,72.2777849 317.757616,73.220642 317.328575,74.0632975 C316.898425,74.9066924 316.300726,75.6269613 315.53474,76.2244739 C314.767644,76.8223563 313.878493,77.2749277 312.866548,77.581079 C311.854973,77.8872303 310.765726,78.0410454 309.601027,78.0410454 Z M322.801808,77.5351933 L322.801808,53.2560672 L326.527438,53.2560672 L326.527438,77.5351933 L322.801808,77.5351933 Z M322.801808,48.4275294 L322.801808,44.4272269 L326.573671,44.4272269 L326.573671,48.4275294 L322.801808,48.4275294 Z M339.728959,78.0410454 C337.612973,78.0410454 335.811,77.5895832 334.324151,76.6873983 C332.836192,75.7848437 331.617493,74.5657849 330.667315,73.0287429 L333.197178,71.1896168 C333.994233,72.4157008 334.968082,73.3504235 336.117986,73.9945244 C337.26789,74.6382555 338.486959,74.9599361 339.774822,74.9599361 C341.338973,74.9599361 342.53474,74.6467597 343.362493,74.0196672 C344.190616,73.392205 344.604863,72.5129445 344.604863,71.3804067 C344.604863,70.3717345 344.28974,69.576037 343.661712,68.995163 C343.032945,68.4139193 342.250685,67.9166084 341.315671,67.5036 C340.379918,67.0905916 339.367973,66.6923731 338.279836,66.3100538 C337.191329,65.9277345 336.179014,65.4537176 335.244,64.8876336 C334.308247,64.3215496 333.525986,63.6027597 332.897959,62.7305244 C332.269192,61.8590286 331.955178,60.7043059 331.955178,59.2663563 C331.955178,58.2872639 332.146397,57.4002387 332.530315,56.6045412 C332.913123,55.8095832 333.442397,55.1288773 334.117027,54.5627933 C334.791288,53.9967092 335.59611,53.5530118 336.531863,53.2320706 C337.467247,52.9111294 338.502123,52.7502891 339.636863,52.7502891 C341.445863,52.7502891 343.009644,53.1407429 344.328945,53.9227597 C345.646767,54.7044067 346.750438,55.7700202 347.640699,57.1184908 L345.156699,59.0500538 C344.542726,58.0998017 343.77637,57.3255496 342.856521,56.7276672 C341.936671,56.1297849 340.847795,55.8310286 339.591,55.8310286 C338.211041,55.8310286 337.191329,56.1379193 336.531863,56.7505916 C335.872027,57.3640034 335.543219,58.1456504 335.543219,59.0959025 C335.543219,60.1075328 335.849466,60.9047092 336.463068,61.4870622 C337.075932,62.0697849 337.850055,62.5604403 338.785808,62.9582891 C339.721192,63.3572471 340.732767,63.7399361 341.821644,64.1078353 C342.910151,64.4757345 343.921726,64.9434655 344.857479,65.5102891 C345.792863,66.0782218 346.566616,66.8058857 347.180219,67.6947597 C347.793452,68.5843731 348.100438,69.7638689 348.100438,71.2354655 C348.100438,72.2777849 347.885548,73.220642 347.456507,74.0632975 C347.026356,74.9066924 346.428658,75.6269613 345.662671,76.2244739 C344.895575,76.8223563 344.006425,77.2749277 342.994479,77.581079 C341.982904,77.8872303 340.893658,78.0410454 339.728959,78.0410454 Z M359.829793,77.8110252 C357.622081,77.8110252 356.0583,77.3739832 355.138081,76.5002689 C354.218232,75.6269244 353.758122,74.1483025 353.758122,72.0629244 L353.758122,56.3368067 L350.170451,56.3368067 L350.170451,53.2560672 L353.758122,53.2560672 L353.758122,44.6109916 L357.484122,44.6109916 L357.484122,53.2560672 L362.773903,53.2560672 L362.773903,56.3368067 L357.484122,56.3368067 L357.484122,71.2354286 C357.484122,72.4925714 357.696793,73.4043697 358.122505,73.9711933 C358.547848,74.5387563 359.398903,74.8219832 360.67604,74.8219832 C361.039985,74.8219832 361.412437,74.7920336 361.793026,74.729916 C362.172136,74.6689076 362.4843,74.592 362.72767,74.5003025 L362.72767,77.4889748 C362.451752,77.581042 362.029738,77.6572101 361.462738,77.718958 C360.894999,77.7799664 360.35093,77.8110252 359.829793,77.8110252 Z M135.501181,61.4868773 C135.28629,60.5983731 135.0714,59.7627429 134.857249,58.9810958 C134.642359,58.199079 134.443373,57.4403563 134.259181,56.704558 C134.075359,55.9687597 133.891167,55.2333311 133.706975,54.4975328 C133.523153,53.7617345 133.354126,52.9956168 133.201373,52.1984403 L133.109277,52.1984403 C132.955414,52.9956168 132.794523,53.7617345 132.626236,54.4975328 C132.457578,55.2333311 132.273386,55.9617345 132.0744,56.6816336 C131.874304,57.4022723 131.667551,58.1528605 131.4534,58.9348773 C131.23851,59.7165244 131.008455,60.5521546 130.763236,61.4410286 L129.843386,64.935516 L136.375167,64.935516 L135.501181,61.4868773 Z M198.977478,72.6146992 C199.927656,72.6146992 200.763547,72.4076403 201.48441,71.9938924 C202.204533,71.5801445 202.810368,71.1434723 203.301177,70.6835059 L203.301177,65.2578252 C200.847505,65.7791697 199.130601,66.4532202 198.149725,67.280716 C197.167738,68.1082118 196.67767,69.074363 196.67767,70.1776908 C196.67767,70.975237 196.884423,71.5801445 197.29867,71.9938924 C197.712547,72.4076403 198.271779,72.6146992 198.977478,72.6146992 Z M270.180621,59.1878588 C269.597716,57.1642286 269.083977,55.3251025 268.639771,53.6697412 C268.194826,52.0143798 267.758018,50.3590185 267.328977,48.7036571 L267.236881,48.7036571 C266.8071,50.3590185 266.369922,52.0069849 265.926086,53.6468168 C265.480771,55.2870185 264.967032,57.1032202 264.384867,59.0957916 L262.913182,64.3839261 L271.652305,64.3839261 L270.180621,59.1878588 Z" id="Combined-Shape"></path>
        </g>
    </g>
</svg>