<?xml version="1.0" encoding="UTF-8"?>
<svg width="50px" height="40px" viewBox="0 0 50 40" version="1.1" xmlns="http://www.w3.org/2000/svg" xmlns:xlink="http://www.w3.org/1999/xlink">
    <!-- Generator: Sketch 47.1 (45422) - http://www.bohemiancoding.com/sketch -->
    <title>icon-vision</title>
    <desc>Created with Sketch.</desc>
    <defs></defs>
    <g id="Always-Assist" stroke="none" stroke-width="1" fill="none" fill-rule="evenodd">
        <g id="AlwaysAssist-Home" transform="translate(-900.000000, -905.000000)" fill="#FFFFFF">
            <path d="M940.148226,942.927315 C940.148226,942.927315 932.130248,944.175256 930.042741,938.106199 C927.58798,932.0499 929.675487,928.912107 931.634175,928.342759 C933.594463,927.773411 938.363964,927.153827 942.655794,928.342759 C946.053094,929.283698 946.16671,933.54982 946.16671,933.54982 C946.334735,941.457696 941.237186,942.743115 940.148226,942.927315 L940.148226,942.927315 Z M919.96206,938.106199 C917.874553,944.175256 909.856575,942.927315 909.856575,942.927315 C908.767615,942.743115 903.669266,941.457696 903.83809,933.54982 C903.83809,933.54982 903.951707,929.283698 907.348206,928.342759 C911.641637,927.153827 916.410338,927.773411 918.369826,928.342759 C920.329314,928.912107 922.41682,932.0499 919.96206,938.106199 L919.96206,938.106199 Z M949.4968,927.962396 L949.4968,927.874682 C949.467995,927.865113 949.440791,927.857139 949.412787,927.84757 L933.888106,906.743422 C933.856101,906.701159 931.020485,903.136754 925.733308,906.323189 L925.598888,906.403727 L925.598888,908.985728 C925.601288,909.051912 925.630093,909.548696 926.041353,909.680268 C926.522224,909.832573 927.161518,909.35094 928.113658,908.11496 C928.706545,907.345464 929.369042,906.944368 930.085147,906.921243 C930.10755,906.920446 930.129154,906.919649 930.150757,906.919649 C931.431745,906.919649 932.574313,908.106986 932.898361,908.47459 C933.57446,909.244885 940.851529,920.257062 945.037744,926.613185 C935.106685,924.371677 928.888971,926.865166 926.984692,927.534987 C926.286989,927.780588 925.61089,927.859531 925.002,927.865113 C924.394711,927.859531 923.717812,927.780588 923.020109,927.534987 C921.355865,926.949691 916.392735,924.974516 908.537981,925.982437 C914.786899,921.813599 922.624051,916.615309 923.396164,916.240528 C923.839429,916.026026 925.354052,915.375342 926.534225,915.871329 C926.554228,915.8801 926.574231,915.888074 926.594234,915.897643 C927.24473,916.19667 927.699197,916.823432 927.945633,917.761181 C928.340891,919.269076 928.74255,919.960427 929.245024,920.005879 C929.675487,920.044155 929.895519,919.597607 929.923523,919.537004 L930.930071,917.158342 L930.837258,917.032352 C927.207924,912.047767 923.205736,914.235052 923.16013,914.260569 L900.624818,927.696063 L900.5,927.771019 L900.508001,927.900996 L900.508001,931.222192 C900.508001,931.222192 901.425736,931.848156 901.403333,932.567416 C901.380129,933.287474 900.379982,945.126561 911.763255,944.998976 C923.147328,944.871391 923.275347,936.326388 923.914641,932.567416 C923.914641,932.567416 924.149875,931.781971 925.002,931.77001 C925.854926,931.758049 926.08936,932.567416 926.08936,932.567416 C926.729454,936.326388 926.857473,944.871391 938.240746,944.998976 C949.624818,945.126561 948.580665,933.207733 948.601468,932.567416 C948.623071,931.927897 949.4968,931.222192 949.4968,931.222192 L949.4968,927.975952 L949.5,927.966383 L949.4968,927.962396 Z" id="icon-vision"></path>
        </g>
    </g>
</svg>