<?xml version="1.0" encoding="UTF-8"?>
<svg width="42px" height="44px" viewBox="0 0 42 44" version="1.1" xmlns="http://www.w3.org/2000/svg" xmlns:xlink="http://www.w3.org/1999/xlink">
    <!-- Generator: Sketch 47.1 (45422) - http://www.bohemiancoding.com/sketch -->
    <title>icon-members</title>
    <desc>Created with Sketch.</desc>
    <defs></defs>
    <g id="Always-Assist" stroke="none" stroke-width="1" fill="none" fill-rule="evenodd">
        <g id="AlwaysAssist-Home" transform="translate(-495.000000, -363.000000)" fill="#FFFFFF">
            <path d="M524,398.767592 L524,392.535184 C524,392.200831 524.167101,391.888599 524.4453,391.703133 L524.4453,391.703133 L525.5,391 C526.437117,390.375255 527,389.323499 527,388.197224 L527,388.197224 L527,379 C527,377.136161 525.725227,375.57006 524,375.126017 C524.31962,375.043753 524.6547,375 525,375 L533,375 L533,375 C535.209139,375 537,376.790861 537,379 L537,388.197224 L537,388.197224 C537,389.323499 536.437117,390.375255 535.5,391 L534.4453,391.703133 L534.4453,391.703133 C534.167101,391.888599 534,392.200831 534,392.535184 L534,405 C534,406.104569 533.104569,407 532,407 L526,407 C524.895431,407 524,406.104569 524,405 L524,398.767592 Z M508,375.126017 C506.274773,375.57006 505,377.136161 505,379 L505,388.197224 C505,389.323499 505.562883,390.375255 506.5,391 L507.5547,391.703133 C507.832899,391.888599 508,392.200831 508,392.535184 L508,398.767592 L508,405 C508,406.104569 507.104569,407 506,407 L500,407 C498.895431,407 498,406.104569 498,405 L498,392.535184 L498,392.535184 C498,392.200831 497.832899,391.888599 497.5547,391.703133 L496.5,391 L496.5,391 C495.562883,390.375255 495,389.323499 495,388.197224 L495,379 L495,379 C495,376.790861 496.790861,375 499,375 L499,375 L507,375 L507,375 C507.3453,375 507.68038,375.043753 508,375.126017 Z M516,373 C513.238576,373 511,370.761424 511,368 C511,365.238576 513.238576,363 516,363 C518.761424,363 521,365.238576 521,368 C521,370.761424 518.761424,373 516,373 Z M503,373 C500.238576,373 498,370.761424 498,368 C498,365.238576 500.238576,363 503,363 C505.761424,363 508,365.238576 508,368 C508,370.761424 505.761424,373 503,373 Z M529,373 C526.238576,373 524,370.761424 524,368 C524,365.238576 526.238576,363 529,363 C531.761424,363 534,365.238576 534,368 C534,370.761424 531.761424,373 529,373 Z M512,375 L520,375 L520,375 C522.209139,375 524,376.790861 524,379 L524,388.197224 L524,388.197224 C524,389.323499 523.437117,390.375255 522.5,391 L521.4453,391.703133 L521.4453,391.703133 C521.167101,391.888599 521,392.200831 521,392.535184 L521,405 C521,406.104569 520.104569,407 519,407 L513,407 C511.895431,407 511,406.104569 511,405 L511,392.535184 C511,392.200831 510.832899,391.888599 510.5547,391.703133 L509.5,391 C508.562883,390.375255 508,389.323499 508,388.197224 L508,379 C508,376.790861 509.790861,375 512,375 Z" id="icon-members"></path>
        </g>
    </g>
</svg>