<?xml version="1.0" encoding="UTF-8"?>
<svg width="42px" height="44px" viewBox="0 0 42 44" version="1.1" xmlns="http://www.w3.org/2000/svg" xmlns:xlink="http://www.w3.org/1999/xlink">
    <!-- Generator: Sketch 47.1 (45422) - http://www.bohemiancoding.com/sketch -->
    <title>icon-registration</title>
    <desc>Created with Sketch.</desc>
    <defs></defs>
    <g id="Always-Assist" stroke="none" stroke-width="1" fill="none" fill-rule="evenodd">
        <g id="AlwaysAssist-Home" transform="translate(-906.000000, -366.000000)" fill="#FFFFFF">
            <path d="M906.111594,399.286083 C909.270463,393.176283 915.64752,389 923,389 C931.689833,389 939.017129,394.833713 941.279206,402.798455 C937.255008,407.222717 931.451838,410 925,410 C916.975552,410 909.954533,405.703811 906.111594,399.286083 Z M923,387 C917.20101,387 912.5,382.29899 912.5,376.5 C912.5,370.70101 917.20101,366 923,366 C928.79899,366 933.5,370.70101 933.5,376.5 C933.5,382.29899 928.79899,387 923,387 Z M936.241988,388.021801 L931.515724,387.182527 L936.024447,385.535297 L936.024447,385.535297 C937.028723,385.168392 937.761822,384.294719 937.948762,383.241988 L938.788035,378.515724 L940.435266,383.024447 C940.802171,384.028723 941.675844,384.761822 942.728575,384.948762 L947.454839,385.788035 L942.946116,387.435266 C941.94184,387.802171 941.208741,388.675844 941.021801,389.728575 L940.182527,394.454839 L938.535297,389.946116 C938.168392,388.94184 937.294719,388.208741 936.241988,388.021801 L936.241988,388.021801 Z" id="icon-registration"></path>
        </g>
    </g>
</svg>