<?xml version="1.0" encoding="UTF-8"?>
<svg width="30px" height="40px" viewBox="0 0 30 40" version="1.1" xmlns="http://www.w3.org/2000/svg" xmlns:xlink="http://www.w3.org/1999/xlink">
    <!-- Generator: Sketch 47.1 (45422) - http://www.bohemiancoding.com/sketch -->
    <title>icon-dental</title>
    <desc>Created with Sketch.</desc>
    <defs></defs>
    <g id="Always-Assist" stroke="none" stroke-width="1" fill="none" fill-rule="evenodd">
        <g id="AlwaysAssist-Home" transform="translate(-501.000000, -908.000000)" fill="#FFFFFF">
            <path d="M531,919.221979 C531,915.456384 530.155233,912.167506 528.893462,910.338197 C527.919559,908.607173 526.061878,908.293596 526.061878,908.293596 C522.088916,907.37493 518.360775,908.873947 517.361313,909.224297 C516.942292,909.371391 516.536051,909.418862 516.170837,909.422873 C516.079365,909.421536 515.701372,909.421536 515.611246,909.422873 C515.246032,909.418862 514.83979,909.371391 514.420769,909.224297 C513.420635,908.873947 508.528249,907.37493 505.720204,908.293596 C505.720204,908.293596 503.510089,908.666679 502.647834,910.845669 C501.643664,912.753874 501,915.683042 501,918.97192 C501,922.834464 502.368711,925.399909 503.20339,927.996779 C504.114743,932.342726 505.29244,946.882925 508.711864,947.823655 C514.650794,949.459068 508.75491,926.85413 515.891041,927.88579 C523.448884,929.168179 518.04466,949.542644 523.984262,947.906562 C527.400995,946.966501 528.041969,937.488995 528.467716,929.059196 C528.478477,926.468343 531,922.943447 531,919.221979" id="icon-dental"></path>
        </g>
    </g>
</svg>