<?xml version="1.0" encoding="UTF-8"?>
<svg width="101px" height="32px" viewBox="0 0 101 32" version="1.1" xmlns="http://www.w3.org/2000/svg" xmlns:xlink="http://www.w3.org/1999/xlink">
    <!-- Generator: Sketch 47.1 (45422) - http://www.bohemiancoding.com/sketch -->
    <title>logo-unum</title>
    <desc>Created with Sketch.</desc>
    <defs></defs>
    <g id="Always-Assist" stroke="none" stroke-width="1" fill="none" fill-rule="evenodd">
        <g id="AlwaysAssist-Home" transform="translate(-371.000000, -1820.000000)">
            <g id="logo-unum" transform="translate(371.000000, 1820.000000)">
                <path d="M54.0099427,31.9070534 C45.9509523,31.9070534 44.1375782,26.6955725 44.1375782,23.1178015 L44.1375782,12.5819847 L50.0755687,12.5819847 L50.0755687,22.7160916 C50.0755687,25.4944733 51.6420324,26.7090076 54.0099427,26.7090076 C56.3724561,26.7090076 57.9402691,25.4944733 57.9402691,22.7160916 L57.9402691,12.5819847 L63.8782595,12.5819847 L63.8782595,23.1178015 C63.8782595,26.6955725 62.0635363,31.9070534 54.0099427,31.9070534 Z M9.87371374,31.9070534 C1.82012023,31.9070534 -1.42108547e-14,26.6955725 -1.42108547e-14,23.1178015 L-1.42108547e-14,12.5819847 L5.93664122,12.5819847 L5.93664122,22.7160916 C5.93664122,25.4944733 7.50715267,26.7090076 9.87371374,26.7090076 C12.2375763,26.7090076 13.8067385,25.4944733 13.8067385,22.7160916 L13.8067385,12.5819847 L19.7433798,12.5819847 L19.7433798,23.1178015 C19.7433798,26.6955725 17.9286565,31.9070534 9.87371374,31.9070534 Z M31.9418282,11.849771 C39.9954218,11.849771 41.8114943,17.0599084 41.8114943,20.6376794 L41.8114943,31.1734962 L35.8735038,31.1734962 L35.8735038,21.0367023 C35.8735038,18.2650382 34.3070401,17.0478168 31.9418282,17.0478168 C29.5752672,17.0478168 28.0074542,18.2650382 28.0074542,21.0367023 L28.0074542,31.1734962 L22.0681145,31.1734962 L22.0681145,20.6376794 C22.0681145,17.0599084 23.8855363,11.849771 31.9418282,11.849771 Z M81.6773893,14.8350534 C81.9310458,14.495145 83.448937,11.849771 88.300792,11.849771 C93.2470935,11.849771 97.1450382,14.3083969 97.1450382,20.2494046 L97.1450382,31.1734962 L91.3433206,31.1734962 L91.3433206,20.2386565 C91.3433206,18.3241527 90.3597271,16.8570382 87.9594351,16.8570382 C85.5604924,16.8570382 84.5782481,18.3241527 84.5782481,20.2386565 L84.5782481,31.1734962 L78.7724828,31.1734962 L78.7724828,20.2386565 C78.7724828,18.3241527 77.7902385,16.8570382 75.3885973,16.8570382 C72.9923531,16.8570382 72.0074103,18.3241527 72.0074103,20.2386565 L72.0074103,31.1734962 L66.2029943,31.1734962 L66.2029943,20.2494046 C66.2029943,14.3083969 70.0995897,11.849771 75.0485897,11.849771 C79.9071908,11.849771 81.4210344,14.495145 81.6773893,14.8350534 Z M98.9462691,15.485313 C97.8115611,15.485313 96.8981279,14.5811298 96.8981279,13.4512366 C96.8981279,12.322687 97.8115611,11.4064122 98.9462691,11.4064122 C100.074231,11.4064122 100.99441,12.322687 100.99441,13.4512366 C100.99441,14.5811298 100.074231,15.485313 98.9462691,15.485313 Z M98.9462691,11.7006412 C97.9734695,11.7006412 97.1990076,12.4892824 97.1990076,13.4512366 C97.1990076,14.4078168 97.9734695,15.1857099 98.9462691,15.1857099 C99.9123225,15.1857099 100.688134,14.4078168 100.688134,13.4512366 C100.688134,12.4892824 99.9123225,11.7006412 98.9462691,11.7006412 Z M99.4090573,14.6039695 L98.6750725,13.5439389 L98.6049122,13.5439389 L98.6049122,14.6039695 L98.2756985,14.6039695 L98.2756985,12.2998473 C98.4308607,12.2246107 98.6453893,12.1775878 98.8653149,12.1775878 C99.3510401,12.1775878 99.6923969,12.4489771 99.6923969,12.8587481 C99.6923969,13.255084 99.4090573,13.4807939 99.0272233,13.5197557 L99.8084313,14.6039695 L99.4090573,14.6039695 Z M98.8369809,12.4489771 C98.7492805,12.4489771 98.6683263,12.4664427 98.6049122,12.4839084 L98.6049122,13.3249466 L98.7843607,13.3249466 C99.1027805,13.3249466 99.3510401,13.2094046 99.3510401,12.8587481 C99.3510401,12.5295878 99.0677004,12.4489771 98.8369809,12.4489771 Z" id="Combined-Shape-Copy" fill="#064174"></path>
                <path d="M27.0589408,4.74796947 C27.0589408,2.0649771 29.2177195,0 31.9391298,0 C34.6349046,0 36.7545553,2.0649771 36.7545553,4.74796947 C36.7545553,7.43499237 34.6349046,9.50131298 31.9391298,9.50131298 C29.2177195,9.50131298 27.0589408,7.43499237 27.0589408,4.74796947 Z M49.1230076,4.74796947 C49.1230076,2.0649771 51.2844847,0 54.0072443,0 C56.7016698,0 58.8213206,2.0649771 58.8213206,4.74796947 C58.8213206,7.43499237 56.7016698,9.50131298 54.0072443,9.50131298 C51.2844847,9.50131298 49.1230076,7.43499237 49.1230076,4.74796947 Z M76.7931527,4.74796947 C76.7931527,2.0649771 78.9546298,0 81.6773893,0 C84.3718149,0 86.4914656,2.0649771 86.4914656,4.74796947 C86.4914656,7.43499237 84.3718149,9.50131298 81.6773893,9.50131298 C78.9546298,9.50131298 76.7931527,7.43499237 76.7931527,4.74796947 Z" id="Combined-Shape" fill="#547082"></path>
            </g>
        </g>
    </g>
</svg>