<?xml version="1.0" encoding="UTF-8"?>
<svg width="165px" height="36px" viewBox="0 0 165 36" version="1.1" xmlns="http://www.w3.org/2000/svg" xmlns:xlink="http://www.w3.org/1999/xlink">
    <!-- Generator: Sketch 47.1 (45422) - http://www.bohemiancoding.com/sketch -->
    <title>logo-starmount</title>
    <desc>Created with Sketch.</desc>
    <defs></defs>
    <g id="Always-Assist" stroke="none" stroke-width="1" fill="none" fill-rule="evenodd">
        <g id="AlwaysAssist-Home" transform="translate(-698.000000, -1820.000000)" fill-rule="nonzero">
            <g id="logo-starmount" transform="translate(698.000000, 1820.000000)">
                <path d="M42.0876217,14.1721519 C41.5827538,13.3518987 40.9401947,12.9189873 39.930459,12.9189873 C38.8748261,12.9189873 37.6815021,13.6481013 37.6815021,14.8101266 C37.6815021,15.8582278 38.7141864,16.4050633 39.5403338,16.7240506 L40.5041725,17.0886076 C42.4089013,17.8405063 43.8317107,18.8658228 43.8317107,21.0987342 C43.8317107,23.5139241 41.9499305,25.2455696 39.5403338,25.2455696 C37.3602225,25.2455696 35.6849791,23.6506329 35.3866481,21.5088608 L37.0848401,21.1443038 C37.0618915,22.6025316 38.232267,23.6734177 39.678025,23.6734177 C41.123783,23.6734177 42.1564673,22.4658228 42.1564673,21.0759494 C42.1564673,19.6405063 41.0090403,19.0253165 39.8386648,18.5468354 L38.9207232,18.1594937 C37.4061196,17.5443038 36.0292072,16.678481 36.0292072,14.8101266 C36.0292072,12.6455696 37.9568846,11.3696203 39.9763561,11.3696203 C41.4680111,11.3696203 42.7072323,12.0987342 43.4415855,13.3746835 L42.0876217,14.1721519 Z M51.54242,24.9721519 L49.8671766,24.9721519 L49.8671766,13.1696203 L46.6773296,13.1696203 L46.6773296,11.643038 L54.7093185,11.643038 L54.7093185,13.1696203 L51.54242,13.1696203 L51.54242,24.9721519 Z M59.5514604,21.6455696 L58.0139082,24.9949367 L56.2239221,24.9949367 L62.6265647,11.0962025 L69.0521558,24.9949367 L67.2392211,24.9949367 L65.701669,21.6455696 L59.5514604,21.6455696 L59.5514604,21.6455696 Z M81.2837274,24.9721519 L79.2413074,24.9721519 L75.2941586,19.3443038 L74.6057024,19.3443038 L74.6057024,24.9721519 L72.930459,24.9721519 L72.930459,11.643038 L74.9499305,11.643038 C76.1432545,11.643038 77.4283727,11.6658228 78.5069541,12.2582278 C79.6314325,12.9189873 80.2739917,14.1721519 80.2739917,15.4481013 C80.2739917,17.3620253 78.9888734,18.956962 77.0382476,19.1848101 L81.2837274,24.9721519 Z M87.984701,16.1772152 L87.9617524,16.1772152 L86.4012517,24.9721519 L84.6801113,24.9721519 L87.4109875,11.0962025 L92.0236439,21.5772152 L96.6363004,11.0962025 L99.3671766,24.9721519 L97.6460362,24.9721519 L96.0855355,16.1772152 L96.0396384,16.1772152 L92.0236439,25.2683544 L87.984701,16.1772152 Z M116.394993,18.3189873 C116.394993,22.2835443 113.251043,25.2683544 109.37274,25.2683544 C105.494437,25.2683544 102.350487,22.2835443 102.350487,18.3189873 C102.350487,14.5139241 105.540334,11.3696203 109.37274,11.3696203 C113.205146,11.3696203 116.394993,14.4911392 116.394993,18.3189873 Z M121.856745,11.643038 L121.856745,19.5037975 C121.856745,21.6683544 122.522253,23.6962025 125.09249,23.6962025 C127.662726,23.6962025 128.328234,21.6911392 128.328234,19.5037975 L128.328234,11.643038 L130.003477,11.643038 L130.003477,20.0734177 C130.003477,23.0126582 128.167594,25.2455696 125.09249,25.2455696 C122.017385,25.2455696 120.181502,22.9898734 120.181502,20.0734177 L120.181502,11.643038 L121.856745,11.643038 L121.856745,11.643038 Z M135.029207,11.0050633 L145.103616,21.5088608 L145.103616,11.643038 L146.77886,11.643038 L146.77886,25.5189873 L136.704451,15.0379747 L136.704451,24.9721519 L135.029207,24.9721519 L135.029207,11.0050633 Z M155.88943,24.9721519 L154.214186,24.9721519 L154.214186,13.1696203 L151.024339,13.1696203 L151.024339,11.643038 L159.079277,11.643038 L159.079277,13.1696203 L155.88943,13.1696203 L155.88943,24.9721519 Z M161.810153,10.8 C161.718359,10.6405063 161.603616,10.5721519 161.420028,10.5721519 C161.213491,10.5721519 161.006954,10.7088608 161.006954,10.9139241 C161.006954,11.0962025 161.190542,11.2101266 161.351182,11.2556962 L161.534771,11.3240506 C161.878999,11.4607595 162.154381,11.643038 162.154381,12.0531646 C162.154381,12.5088608 161.810153,12.8278481 161.374131,12.8278481 C160.984006,12.8278481 160.662726,12.5316456 160.616829,12.1443038 L160.938108,12.0759494 C160.938108,12.3493671 161.144645,12.5316456 161.420028,12.5316456 C161.69541,12.5316456 161.878999,12.3037975 161.878999,12.0531646 C161.878999,11.7797468 161.672462,11.6658228 161.442976,11.5974684 L161.282337,11.5291139 C161.006954,11.4151899 160.75452,11.2556962 160.75452,10.9139241 C160.75452,10.5265823 161.098748,10.2759494 161.488873,10.2759494 C161.764256,10.2759494 161.993741,10.4126582 162.131433,10.6405063 L161.810153,10.8 Z M162.911683,11.164557 L162.888734,11.164557 L162.613352,12.7822785 L162.292072,12.7822785 L162.79694,10.2303797 L163.646036,12.1670886 L164.495132,10.2303797 L165,12.7822785 L164.67872,12.7822785 L164.380389,11.164557 L163.646036,12.8506329 L162.911683,11.164557 Z M62.6265647,14.7189873 L60.2399166,20.1189873 L65.0132128,20.1189873 L62.6265647,14.7189873 Z M74.6057024,17.9544304 L75.1335188,17.9544304 C76.8317107,17.9544304 78.6905424,17.635443 78.6905424,15.5164557 C78.6905424,13.4202532 76.6940195,13.1240506 75.0417246,13.1240506 L74.6057024,13.1240506 L74.6057024,17.9544304 L74.6057024,17.9544304 Z M114.71975,18.3189873 C114.71975,15.3797468 112.51669,12.9189873 109.349791,12.9189873 C106.205841,12.9189873 104.002782,15.3797468 104.002782,18.3189873 C104.002782,21.3721519 106.458275,23.7189873 109.349791,23.7189873 C112.264256,23.7189873 114.71975,21.3493671 114.71975,18.3189873 Z" id="Combined-Shape" fill="#000000"></path>
                <path d="M29.7872045,30.8057855 L29.7872045,0.569620253 L0.711404729,0.569620253 L0.711404729,35.3164557 L29.7872045,35.3164557 L29.7872045,35.043038 L15.3984701,35.043038 L15.3984701,2.34683544 L29.7872045,30.8057855 Z" id="Combined-Shape" fill="#A4BDDA" transform="translate(15.249305, 17.943038) scale(-1, 1) translate(-15.249305, -17.943038) "></path>
                <path d="M1.23922114,30.3746795 L15.3984701,2.36962025 L15.3984701,34.7924051 L29.3511822,34.7924051 L29.3511822,1.09367089 L1.23922114,1.09367089 L1.23922114,30.3746795 Z M30.3609179,35.8177215 L0.206536857,35.8177215 L0.206536857,0.0683544304 L30.3838665,0.0683544304 L30.3838665,35.8177215 L30.3609179,35.8177215 Z" id="Combined-Shape" fill="#000000" transform="translate(15.295202, 17.943038) scale(-1, 1) translate(-15.295202, -17.943038) "></path>
            </g>
        </g>
    </g>
</svg>