<?xml version="1.0" encoding="UTF-8"?>
<svg width="128px" height="32px" viewBox="0 0 128 32" version="1.1" xmlns="http://www.w3.org/2000/svg" xmlns:xlink="http://www.w3.org/1999/xlink">
    <!-- Generator: Sketch 47.1 (45422) - http://www.bohemiancoding.com/sketch -->
    <title>logo-colonial</title>
    <desc>Created with Sketch.</desc>
    <defs></defs>
    <g id="Always-Assist" stroke="none" stroke-width="1" fill="none" fill-rule="evenodd">
        <g id="AlwaysAssist-Home" transform="translate(-521.000000, -1818.000000)">
            <g id="logo-colonial" transform="translate(521.000000, 1818.000000)">
                <path d="M13.1630743,20.4862874 C11.7344427,18.9895484 10.1074383,18.227207 8.3238239,18.227207 C6.80209629,18.227207 5.49875269,18.7625051 4.4512055,19.8042843 C3.40626848,20.854796 2.87727455,22.1637877 2.87727455,23.6980761 C2.87727455,24.7651794 3.10957945,25.7318597 3.57331919,26.5570746 C4.03879905,27.3945149 4.70352169,28.0503206 5.54834587,28.5227453 C6.38881978,28.9899304 7.34501111,29.232692 8.37863741,29.232692 C9.26000394,29.232692 10.0761163,29.0650293 10.8069632,28.7375631 C11.5204089,28.4109701 12.3156399,27.8127985 13.1604641,26.9771047 C13.2474697,27.0661755 15.0189033,28.9244372 15.1137394,29.013508 C13.9739663,30.1234002 12.8820463,30.90146 11.8666911,31.3337154 C10.835675,31.7720835 9.6428285,32 8.32817417,32 C5.89810831,32 3.87870878,31.2088416 2.33261962,29.6649475 C0.781310114,28.1166871 0,26.1117206 0,23.6902169 C0,22.125365 0.354982769,20.7159503 1.05798786,19.5003957 C1.76534323,18.2892073 2.79026897,17.2937099 4.10144307,16.5505799 C5.42044767,15.8126893 6.85777986,15.4398144 8.37167696,15.4398144 C9.66109967,15.4398144 10.9218105,15.7157593 12.1155271,16.2624096 C13.2918425,16.802074 14.3132881,17.5783872 15.1729032,18.5660254 L13.1630743,20.4862874 Z M17.695195,21.2503752 C18.849759,20.2094692 20.2000856,19.6794106 21.7052822,19.6794106 C22.7919819,19.6794106 23.8264782,19.9509892 24.7852797,20.4976395 C25.7458214,21.0416701 26.4992897,21.7944058 27.0361141,22.7322691 C27.5738086,23.6683859 27.8417858,24.6944467 27.8417858,25.7781416 C27.8417858,26.8679492 27.5694583,27.8992496 27.0317638,28.8545777 C26.4914592,29.8011734 25.7458214,30.5556556 24.8122515,31.088334 C23.8786816,31.6262519 22.8389649,31.9004503 21.7131127,31.9004503 C20.0634869,31.9004503 18.6365954,31.2944194 17.4655002,30.119034 C16.2961452,28.9392823 15.7045073,27.4835858 15.7045073,25.7990995 C15.7045073,23.9906126 16.3744503,22.4633101 17.695195,21.2503752 Z M29.5853776,15.7279847 L32.3878274,15.7279847 L32.3878274,31.6000546 L29.5853776,31.6000546 L29.5853776,15.7279847 Z M36.1281973,21.2503752 C37.2871116,20.2094692 38.6383083,19.6794106 40.1391546,19.6794106 C41.2258543,19.6794106 42.2603506,19.9509892 43.2208922,20.4976395 C44.1762135,21.0416701 44.9314219,21.7944058 45.4699865,22.7322691 C46.0059408,23.6683859 46.2765282,24.6944467 46.2765282,25.7781416 C46.2765282,26.8679492 46.0033307,27.8992496 45.4638961,28.8545777 C44.9244615,29.8011734 44.1762135,30.5556556 43.2478639,31.088334 C42.313424,31.6262519 41.2737073,31.9004503 40.1504653,31.9004503 C38.4973592,31.9004503 37.0695977,31.2944194 35.8993726,30.119034 C34.7317577,28.9392823 34.1392497,27.4835858 34.1392497,25.7990995 C34.1392497,23.9906126 34.8065825,22.4633101 36.1281973,21.2503752 Z M52.9359353,20.0060035 C53.4684095,19.7876927 54.0165447,19.6785373 54.5751205,19.6785373 C55.7114134,19.6785373 56.6858759,20.0767363 57.4802368,20.8783736 C58.1432193,21.5481512 58.4773208,22.5689726 58.4773208,23.8963024 L58.4773208,31.6000546 L55.7148936,31.6000546 L55.7148936,26.5212717 C55.7148936,25.0952654 55.6531196,24.1783599 55.5243514,23.7059353 C55.3947131,23.234384 55.1641483,22.8676218 54.8465779,22.613508 C54.521177,22.3672534 54.1192112,22.2432528 53.6493811,22.2432528 C53.0377319,22.2432528 52.5052577,22.448465 52.0658795,22.8562696 C51.6334618,23.2614545 51.3289423,23.8308091 51.1618916,24.5459954 C51.0740159,24.9249829 51.0296431,25.7074089 51.0296431,26.9491609 L51.0296431,31.6000546 L48.2245832,31.6000546 L48.2245832,19.978933 L51.0296431,19.978933 L51.0296431,21.2634739 L51.1418803,21.1656706 C51.8031227,20.6102879 52.4043312,20.2173284 52.9359353,20.0060035 Z M61.1370814,19.978933 L63.9412712,19.978933 L63.9412712,31.6000546 L61.1370814,31.6000546 L61.1370814,19.978933 Z M67.7843077,21.3883477 C68.8318549,20.2557511 70.1204076,19.6785373 71.6221239,19.6785373 C72.3129482,19.6785373 72.96462,19.8077773 73.5684387,20.0697503 C74.1739976,20.3334698 74.741274,20.7316687 75.2580871,21.2512485 L75.3738045,21.378742 L75.3738045,19.978933 L78.1788644,19.978933 L78.1788644,31.6000546 L75.3738045,31.6000546 L75.3738045,30.2596261 L75.2615673,30.374021 C74.6916808,30.9119389 74.1209242,31.3066448 73.5562579,31.5389275 C72.9889816,31.7816892 72.3660216,31.9004503 71.7091295,31.9004503 C70.2230742,31.9004503 68.9240808,31.3092646 67.8312907,30.1495975 C66.7524215,28.9908037 66.2016762,27.5307409 66.2016762,25.8130714 C66.2016762,24.0176832 66.7341504,22.5331696 67.7843077,21.3883477 Z M80.9830543,15.4406877 L83.7855041,15.4406877 L83.7855041,31.6000546 L80.9830543,31.6000546 L80.9830543,15.4406877 Z M91.4828878,15.4328285 L94.3601623,15.4328285 L94.3601623,28.8467185 L98.7461136,28.8467185 L98.7461136,31.6009278 L91.4828878,31.6009278 L91.4828878,15.4328285 Z M108.472467,15.6886888 C108.923156,15.3227998 109.573958,15.1394187 110.403121,15.1394187 C110.988669,15.1394187 111.665572,15.2782644 112.400769,15.5419839 L112.400769,17.6465002 C112.012725,17.5399645 111.682103,17.4753445 111.424567,17.4753445 C111.067844,17.4753445 110.798997,17.5565561 110.619765,17.7163597 C110.491867,17.8377405 110.428353,18.0735162 110.428353,18.4367854 L110.420522,19.9798062 L112.276351,19.9798062 L112.276351,22.3331969 L110.420522,22.3331969 L110.420522,31.6000546 L107.612852,31.6000546 L107.612852,22.3331969 L106.566175,22.3331969 L106.566175,19.9798062 L107.612852,19.9798062 L107.612852,19.9064538 C107.619813,18.3782781 107.648525,17.4613726 107.686807,17.1836813 C107.761632,16.5575658 108.029609,16.0537045 108.472467,15.6886888 Z M114.697717,21.4320098 C115.828789,20.2679765 117.273952,19.6794106 118.980131,19.6794106 C120.804638,19.6794106 122.298524,20.2679765 123.433077,21.4320098 C124.57459,22.5951699 125.149697,24.1591486 125.149697,26.0698049 C125.149697,26.0698049 125.143607,26.4575249 125.136646,26.5631873 L115.67914,26.5631873 L115.693061,26.644399 C115.828789,27.4949379 116.209874,28.1839269 116.806732,28.6860418 C117.408811,29.1933961 118.190991,29.4457634 119.124561,29.4457634 C120.220831,29.4457634 121.171802,29.0580434 121.966163,28.295702 C122.041858,28.331505 124.170884,29.333115 124.322274,29.401228 C123.725416,30.2369218 123.01197,30.8682767 122.184547,31.2725883 C121.335373,31.6873789 120.315667,31.9004503 119.148052,31.9004503 C117.330506,31.9004503 115.83662,31.317997 114.702067,30.1749215 C113.561424,29.0283531 112.984577,27.5726566 112.984577,25.8532406 C112.984577,24.0840497 113.561424,22.5951699 114.697717,21.4320098 Z M101.18227,19.978933 L103.98907,19.978933 L103.98907,31.6000546 L101.18227,31.6000546 L101.18227,19.978933 Z M128,30.2508937 C128,31.0176013 127.411842,31.6070405 126.648803,31.6070405 C125.884024,31.6070405 125.281076,31.0176013 125.281076,30.2508937 C125.281076,29.5007777 125.884024,28.9122118 126.657504,28.9122118 C127.411842,28.9122118 128,29.5007777 128,30.2508937 Z M125.575154,30.2508937 C125.575154,30.8743894 126.035414,31.3625324 126.657504,31.3625324 C127.251752,31.3712648 127.705921,30.8743894 127.705921,30.2596261 C127.705921,29.6439896 127.251752,29.1479874 126.640103,29.1479874 C126.035414,29.1479874 125.575154,29.6439896 125.575154,30.2508937 Z M68.9919452,25.7772684 C68.9919452,26.805949 69.3051653,27.6652204 69.923775,28.3288853 C70.5432547,28.9934234 71.3202145,29.3339883 72.231163,29.3339883 C73.167343,29.3339883 73.9530034,29.0030291 74.569873,28.3472234 C75.1893527,27.6931641 75.4964824,26.8251603 75.4964824,25.7659162 C75.4964824,24.7302497 75.1893527,23.880584 74.569873,23.2387502 C73.9530034,22.5864374 73.1621227,22.2703234 72.2189822,22.2703234 C71.296723,22.2703234 70.5188931,22.5960431 69.9115942,23.2544685 C69.2982048,23.9085278 68.9919452,24.7581935 68.9919452,25.7772684 Z M37.8491677,28.3227725 C38.4573367,28.9672261 39.2395168,29.2938191 40.1739568,29.2938191 C41.1075267,29.2938191 41.8975373,28.9672261 42.516147,28.3114204 C43.1382369,27.6564879 43.451457,26.8085687 43.451457,25.7894938 C43.451457,24.7651794 43.1408471,23.9207532 42.5326781,23.2806658 C41.922769,22.6370856 41.1336283,22.3122391 40.1852675,22.3122391 C39.2595281,22.3122391 38.477348,22.6405785 37.8587383,23.2946377 C37.2409987,23.941711 36.9295187,24.7808978 36.9295187,25.7894938 C36.9295187,26.8251603 37.2366484,27.6739528 37.8491677,28.3227725 Z M19.410945,28.3227725 C20.0234643,28.9672261 20.8065145,29.2938191 21.7400844,29.2938191 C22.6762645,29.2938191 23.463665,28.9672261 24.0779244,28.3114204 C24.7043646,27.6564879 25.0158445,26.8085687 25.0158445,25.7894938 C25.0158445,24.7651794 24.7095849,23.9207532 24.0996758,23.2806658 C23.4906367,22.6370856 22.6971458,22.3122391 21.7522652,22.3122391 C20.8247857,22.3122391 20.0408654,22.6405785 19.4231258,23.2946377 C18.8097365,23.941711 18.4947763,24.7808978 18.4947763,25.7894938 C18.4947763,26.8251603 18.8053862,27.6739528 19.410945,28.3227725 Z M119.12021,22.031928 C118.291917,22.031928 117.54889,22.2703234 116.918969,22.7322691 C116.527444,23.0309183 116.15506,23.553991 115.822699,24.2857689 L115.775716,24.3861918 L122.361168,24.3861918 L122.333327,24.2927548 C122.134954,23.6325829 121.740819,23.0780734 121.157881,22.6580434 C120.574944,22.2432528 119.88847,22.031928 119.12021,22.031928 Z M126.404318,30.991404 L126.144171,30.991404 L126.144171,29.5854823 C126.28686,29.5610315 126.43825,29.5435667 126.631402,29.5435667 C126.866317,29.5435667 126.983775,29.5854823 127.06817,29.6527221 C127.151696,29.7121026 127.209119,29.8221313 127.209119,29.9566107 C127.209119,30.1242734 127.083831,30.2343021 126.941142,30.2849502 L126.941142,30.3015418 C127.06034,30.3521899 127.126464,30.4613453 127.169097,30.6464729 C127.209119,30.8569245 127.243922,30.9416291 127.277854,30.991404 L127.009006,30.991404 C126.966374,30.9416291 126.932442,30.8150089 126.891549,30.6298813 C126.857617,30.4700778 126.766261,30.402838 126.572238,30.402838 L126.404318,30.402838 L126.404318,30.991404 Z M126.404318,30.2002456 L126.580939,30.2002456 C126.766261,30.2002456 126.941142,30.1417383 126.941142,29.9810615 C126.941142,29.8465821 126.848916,29.7461591 126.606171,29.7461591 C126.506114,29.7461591 126.44695,29.7540183 126.404318,29.7627507 L126.404318,30.2002456 Z" id="Combined-Shape" fill="#2C5B81"></path>
                <path d="M100.640225,11.8149816 C100.640225,10.3086369 101.515501,9.08696957 102.5848,9.08696957 C103.654968,9.08696957 104.523284,10.3086369 104.523284,11.8149816 C104.523284,13.31696 103.654968,14.5429936 102.5848,14.5429936 C101.515501,14.5429936 100.640225,13.31696 100.640225,11.8149816 Z M86.0702706,7.62516032 C86.0702706,5.12768454 86.7767559,3.01967526 87.6033089,3.01967526 C88.4394326,3.01967526 89.1398275,5.12768454 89.1398275,7.62516032 C89.1398275,10.1208896 88.4394326,12.2315186 87.6033089,12.2315186 C86.7767559,12.2315186 86.0702706,10.1208896 86.0702706,7.62516032 Z M60.2678956,12.8349297 C60.2678956,11.4805294 61.3615558,10.3863556 62.705792,10.3863556 C64.0535084,10.3863556 65.1462985,11.4805294 65.1462985,12.8349297 C65.1462985,14.1849638 64.0535084,15.2826306 62.705792,15.2826306 C61.3615558,15.2826306 60.2678956,14.1849638 60.2678956,12.8349297 Z M71.7769938,12.7554646 C70.6015484,12.7554646 69.644487,11.3539091 69.644487,9.6362396 C69.644487,7.91595033 70.6015484,6.51352163 71.7769938,6.51352163 C72.948959,6.51352163 73.9077605,7.91595033 73.9077605,9.6362396 C73.9077605,11.3539091 72.948959,12.7554646 71.7769938,12.7554646 Z M93.513598,3.47288853 C93.513598,1.55873926 94.3653827,0 95.368557,0 C96.366511,0 97.1443409,1.55873926 97.1443409,3.47288853 C97.1443409,5.38092509 96.3273585,6.93529813 95.3294045,6.93529813 C94.3288403,6.93529813 93.513598,5.38092509 93.513598,3.47288853 Z M78.3363445,5.18095238 C78.3363445,3.14891527 79.0463101,1.49673898 79.9250664,1.49673898 C80.8055629,1.49673898 81.5207488,3.14891527 81.5207488,5.18095238 C81.5207488,7.21473598 80.8055629,8.869532 79.9250664,8.869532 C79.0463101,8.869532 78.3363445,7.21473598 78.3363445,5.18095238 Z" id="Combined-Shape" fill="#5D7184"></path>
            </g>
        </g>
    </g>
</svg>